# xmcd
#
# Track frame offsets:
#	150
#	14425
#	26290
#	46907
#	65107
#	82592
#	96037
#	114557
#	133195
#	155050
#	177052
#	194537
#	214472
#
# Disc length: 3057 seconds
#
# Revision: 5
# Processed by: cddbd v1.5.1PL0 Copyright (c) Steve Scherf et al.
# Submitted via: audiograbber 1.83.01
#
DISCID=af0bef0d
DTITLE=Jose Feliciano - Light My Fire
DYEAR=1900
DGENRE=
TTITLE0=Light My Fire
TTITLE1=Rain
TTITLE2=Hi Heel Sneakers
TTITLE3=California Dreaming
TTITLE4=The Last Time
TTITLE5=La Bamba 
TTITLE6=Y Volvere
TTITLE7=You Send Me
TTITLE8=Stay With Me
TTITLE9=Jealous Guy
TTITLE10=Daniel
TTITLE11=Right Here Waiting
TTITLE12=Time After Time t
EXTD=
EXTT0=
EXTT1=
EXTT2=
EXTT3=
EXTT4=
EXTT5=
EXTT6=
EXTT7=
EXTT8=
EXTT9=
EXTT10=
EXTT11=
EXTT12=
PLAYORDER=
